/* XPM */
static char * buildnotify_xpm[] = {
"32 32 45 1",
" 	c None",
".	c #7FB546",
"+	c #83BA48",
"@	c #8BC54C",
"#	c #8DC94D",
"$	c #89C44C",
"%	c #82B947",
"&	c #7EB344",
"*	c #7AAD42",
"=	c #91CF50",
"-	c #92D050",
";	c #8FCB4E",
">	c #6F9E3D",
",	c #77A941",
"'	c #91CE4F",
")	c #8AC44B",
"!	c #7BB044",
"~	c #72A540",
"{	c #82BA48",
"]	c #7CB044",
"^	c #89C44B",
"/	c #7EB545",
"(	c #8AC54C",
"_	c #80B545",
":	c #89C34B",
"<	c #88C24B",
"[	c #88C14A",
"}	c #87C14A",
"|	c #87C04A",
"1	c #86BF49",
"2	c #85BE49",
"3	c #85BD49",
"4	c #84BC48",
"5	c #83BB48",
"6	c #7FB446",
"7	c #80B746",
"8	c #7BB043",
"9	c #8ECA4E",
"0	c #86BE49",
"a	c #6E9A3C",
"b	c #6C993A",
"c	c #72A23F",
"d	c #7DB344",
"e	c #7EB446",
"f	c #7AAF44",
"    .+@##################$%&    ",
"  *=------------------------;>  ",
" ,---------------------------'  ",
" '----------------------------) ",
"!------------------------------~",
"{------------------------------]",
"^------------------------------/",
"(------------------------------_",
"^------------------------------_",
":------------------------------_",
"<------------------------------_",
"<------------------------------_",
"[------------------------------_",
"}------------------------------_",
"|------------------------------_",
"1------------------------------_",
"1------------------------------_",
"2------------------------------_",
"3------------------------------_",
"4------------------------------_",
"4------------------------------_",
"4------------------------------_",
"5------------------------------_",
"+------------------------------_",
"+------------------------------_",
"%------------------------------6",
"7------------------------------8",
"*------------------------------ ",
" 9----------------------------0 ",
" a'--------------------------9  ",
"  b(------------------------4   ",
"    cdeeeeeeeeeeeeeeeeeeeef     "};
